<svg id="Layer_1" enable-background="new 0 0 510 510" height="512" viewBox="0 0 510 510" width="512" xmlns="http://www.w3.org/2000/svg"><g><path d="m487.53 360.01c-12.52 27.69-30.09 53.17-52.22 75.3s-47.61 39.7-75.3 52.22c0 0-10.1-4.61-14.65-2.87-5.43 2.09-15.36 14.19-15.36 14.19-19.31 5.91-39.43 9.53-60 10.72 0 0-9.98-10.73-15-10.73l-24.772-83.087 24.772-160.753h175.19c0 36.81 57.34 105.01 57.34 105.01z" fill="#d9225b"/><path d="m255 255v243.84c-5.02 0-15 10.73-15 10.73-20.57-1.19-40.69-4.81-60-10.72 0 0-11.95-17.4-17.5-19.53-4.43-1.71-12.51 8.21-12.51 8.21-27.69-12.52-53.17-30.09-75.3-52.22s-39.7-47.61-52.22-75.3c0 0 25.98-66.82 25.98-103.64 0-.45 0-.91-.02-1.37z" fill="#de5958"/><path d="m487.53 149.99s-44.27 52.65-55.01 90.4h-31.69v-12.61h35.91v-30h-65.91v57.22h-37.91v-28h23.85v-30h-77.5v30h23.65v28h-32.92c0-14.94-5.67-28.58-15-38.87l-15-98.714 15-117.416c68.11 0 132.15 26.52 180.31 74.69 22.13 22.13 39.7 47.61 52.22 75.3z" fill="#5c5ccc"/><g fill="#7288ff"><path d="m255 216.13c9.33 10.29 15 23.93 15 38.87h-221.57c-.61-37.13-25.96-105.01-25.96-105.01 12.52-27.69 30.09-53.17 52.22-75.3 48.16-48.17 112.2-74.69 180.31-74.69z"/><path d="m279.27 197h77.5v30h-23.85v28h-30v-28h-23.65z"/><path d="m400.83 227.78v12.61h31.69c-1.49 5.21-2.33 10.14-2.33 14.61h-59.36v-57.22h65.91v30z"/></g><g><path d="m180 74.911h30v30h-30z" fill="#fff5f5"/><path d="m270 74.91v30.09h-15l-5.168-15.089 5.168-15.001z" fill="#efe2de"/><path d="m240 74.91h15v30.09h-15z" fill="#fff5f5"/><path d="m300 74.91h30v30.09h-30z" fill="#efe2de"/></g><path d="m510 255c0-36.81-7.76-72.43-22.49-105h-232.51l-24.772 105.39 24.772 254.61c5.02 0 10.02-.16 15-.45v-149.55h60v138.84c10.24-3.13 20.26-6.92 30-11.33v-127.51h127.51c14.73-32.57 22.49-68.19 22.49-105z" fill="#efe2de"/><path d="m22.49 150c-14.73 32.57-22.49 68.19-22.49 105s7.76 72.43 22.49 105h127.51v127.513c9.745 4.406 19.759 8.194 30 11.329v-138.842h60v149.55c4.98.29 9.98.45 15 .45v-255-105z" fill="#fff5f5"/><g><path d="m400.83 227.78v12.61h33.26v30h-33.26v12.61h35.91v30h-65.91v-115.22h65.91v30z" fill="#5c5ccc"/><path d="m104.053 256.873-21.647-62.661-28.356 9.796 37.655 108.995h25.317l36.223-109.065-28.472-9.456z" fill="#7288ff"/><path d="m356.77 197v30h-23.85v86h-30v-86h-23.65v-30z" fill="#5c5ccc"/><path d="m212 197c-31.99 0-58.01 26.02-58.01 58s26.02 58 58.01 58c17.04 0 32.39-7.39 43-19.13l7.5-37.87-7.5-39.87c-10.61-11.74-25.96-19.13-43-19.13zm0 86c-15.44 0-28.01-12.56-28.01-28s12.57-28 28.01-28 28 12.56 28 28-12.56 28-28 28z" fill="#7288ff"/><path d="m270 255c0 14.94-5.67 28.58-15 38.87v-77.74c9.33 10.29 15 23.93 15 38.87z" fill="#5c5ccc"/></g></g></svg>